<svg xmlns="http://www.w3.org/2000/svg" width="96" height="96" viewBox="0 0 96 96">
  <defs>
    <filter id="shadow" x="-20%" y="-20%" width="140%" height="140%">
      <feDropShadow dx="0" dy="4" stdDeviation="5" flood-color="#000" flood-opacity="0.16"/>
    </filter>
  </defs>
  <g filter="url(#shadow)">
    <circle cx="48" cy="48" r="42" fill="#FFFFFF"/>
    <circle cx="48" cy="48" r="32" fill="#FF9F1A"/>
    <path d="M31 50.5c0-2.6.6-4.7 1.9-6.3 1.1-1.3 2.2-2 3.8-2.7l2.8-9.2c.5-1.7 2-2.8 3.8-2.8h9.4c1.8 0 3.4 1.1 3.9 2.8l2.8 9.2c1.5.7 2.6 1.4 3.7 2.7 1.3 1.6 1.9 3.7 1.9 6.3V61c0 1.1-.9 2-2 2h-1.8c-1 0-1.8-.8-1.8-1.8v-2.4H37.6v2.4c0 1-.8 1.8-1.8 1.8H34c-1.1 0-2-.9-2-2V50.5Z" fill="#FFFFFF"/>
    <path d="M41.4 36.5h13.2c.8 0 1.5.5 1.8 1.3l1.4 4.6H38.2l1.4-4.6c.2-.8.9-1.3 1.8-1.3Z" fill="#FFFFFF" opacity="0.9"/>
    <circle cx="40.5" cy="51.5" r="3.5" fill="#1E2430"/>
    <circle cx="55.5" cy="51.5" r="3.5" fill="#1E2430"/>
  </g>
</svg>
